<?xml version="1.0" encoding="UTF-8" standalone="no"?>
<!DOCTYPE svg PUBLIC "-//W3C//DTD SVG 1.1//EN" "http://www.w3.org/Graphics/SVG/1.1/DTD/svg11.dtd">
<svg width="100%" height="100%" viewBox="0 0 45 45" version="1.1" xmlns="http://www.w3.org/2000/svg" xmlns:xlink="http://www.w3.org/1999/xlink" xml:space="preserve" xmlns:serif="http://www.serif.com/" style="fill-rule:evenodd;clip-rule:evenodd;stroke-linejoin:round;stroke-miterlimit:2;">
    <g transform="matrix(1,0,0,1,0,-1)">
        <g transform="matrix(1,0,0,1,-55.16,-29.21)">
            <g transform="matrix(1,0,0,1,55.16,30.21)">
                <circle cx="22.497" cy="22.497" r="22.497" style="fill:url(#_Linear1);"/>
                <g transform="matrix(1,0,0,1,-61.057,-61.657)">
                    <path d="M99.606,88.1L99.461,86.41L99.4,86.41L99.219,88.138L99.219,88.831L98.684,87.987L98.684,83.859L98.548,82.259L98.455,82.259L98.293,83.5L97.836,83.137L96.71,73.862C96.929,73.794 97.079,73.591 97.08,73.362C97.079,73.277 97.056,73.193 97.012,73.12L97.378,72.65L97.306,72.565L96.738,72.875L96.661,72.843C96.752,72.801 96.81,72.709 96.81,72.609C96.81,72.608 96.81,72.606 96.81,72.605C96.81,72.461 96.692,72.343 96.548,72.343C96.404,72.343 96.286,72.461 96.286,72.605C96.286,72.707 96.346,72.8 96.438,72.843L96.359,72.875L95.792,72.565L95.722,72.65L96.087,73.12C96.043,73.197 96.021,73.284 96.021,73.372C96.021,73.598 96.17,73.798 96.387,73.862L95.259,83.134L94.802,83.497L94.64,82.262L94.55,82.262L94.414,83.862L94.414,87.989L93.879,88.833L93.879,88.14L93.7,86.409L93.636,86.409L93.489,88.099L93.489,91.91L85.789,91.91L85.789,90.436L85.089,89.752L85.089,84.452L84.919,84.174L84.919,79.374L84.67,78.909L84.67,78.209L84.778,78.086L84.684,77.856L84.684,75.581C85.003,75.081 85.174,74.501 85.175,73.908C85.1,72.116 83.659,70.656 81.868,70.559C81.63,70.417 81.573,69.987 81.558,69.717C81.726,69.679 81.847,69.528 81.847,69.356C81.847,69.153 81.68,68.986 81.477,68.986C81.274,68.986 81.107,69.153 81.107,69.356C81.107,69.528 81.228,69.679 81.396,69.717C81.385,69.987 81.328,70.417 81.09,70.559C79.3,70.657 77.86,72.116 77.785,73.908C77.786,74.5 77.955,75.081 78.272,75.581L78.272,77.857L78.179,78.087L78.289,78.21L78.289,78.91L78.042,79.375L78.042,84.175L77.87,84.453L77.87,89.753L77.222,90.386L76.574,89.753L76.574,84.453L76.402,84.175L76.402,79.375L76.155,78.91L76.155,78.21L76.265,78.087L76.172,77.857L76.172,75.581C76.489,75.08 76.657,74.5 76.659,73.908C76.584,72.116 75.144,70.657 73.354,70.559C73.114,70.417 73.059,69.987 73.044,69.717C73.212,69.679 73.333,69.528 73.333,69.356C73.333,69.153 73.166,68.986 72.963,68.986C72.76,68.986 72.593,69.153 72.593,69.356C72.593,69.528 72.714,69.679 72.882,69.717C72.867,69.987 72.812,70.417 72.574,70.559C70.785,70.66 69.346,72.117 69.269,73.908C69.27,74.501 69.44,75.081 69.758,75.581L69.758,77.857L69.665,78.087L69.775,78.21L69.775,78.91L69.526,79.375L69.526,84.175L69.356,84.453L69.356,89.753L68.656,90.437L68.656,91.912L62.43,91.912C65.678,100.747 74.141,106.652 83.553,106.652C92.966,106.652 101.429,100.747 104.677,91.912L99.606,91.912L99.606,88.1ZM94.49,90.633L93.952,90.633L93.952,89.733L94.22,89.268L94.49,89.733L94.49,90.633ZM95.196,84.349L94.854,84.349L94.854,83.786L95.196,83.516L95.196,84.349ZM96.296,73.317C96.296,73.182 96.407,73.07 96.542,73.07C96.678,73.07 96.789,73.182 96.789,73.317C96.789,73.452 96.678,73.564 96.542,73.564C96.407,73.564 96.296,73.452 96.296,73.317ZM98.238,84.349L97.9,84.349L97.9,83.516L98.244,83.786L98.238,84.349ZM99.138,90.633L98.6,90.633L98.6,89.733L98.868,89.268L99.138,89.733L99.138,90.633Z" style="fill:rgb(0,90,159);fill-rule:nonzero;"/>
                </g>
            </g>
        </g>
    </g>
    <defs>
        <linearGradient id="_Linear1" x1="0" y1="0" x2="1" y2="0" gradientUnits="userSpaceOnUse" gradientTransform="matrix(0,44.994,-44.994,0,22.497,0)"><stop offset="0" style="stop-color:rgb(255,230,0);stop-opacity:1"/><stop offset="0.57" style="stop-color:rgb(255,220,0);stop-opacity:1"/><stop offset="1" style="stop-color:rgb(255,211,0);stop-opacity:1"/></linearGradient>
    </defs>
</svg>
